<?xml version="1.0" encoding="UTF-8" standalone="no"?>
<!DOCTYPE svg PUBLIC "-//W3C//DTD SVG 1.1//EN" "http://www.w3.org/Graphics/SVG/1.1/DTD/svg11.dtd">
<svg width="100%" height="100%" viewBox="0 0 24 24" version="1.1" xmlns="http://www.w3.org/2000/svg" xmlns:xlink="http://www.w3.org/1999/xlink" xml:space="preserve" xmlns:serif="http://www.serif.com/" style="fill-rule:evenodd;clip-rule:evenodd;stroke-linecap:round;stroke-linejoin:round;">
    <g id="Iconly-Curved-Play" serif:id="Iconly/Curved/Play" transform="matrix(1.10811,0,0,1.10811,-1.29727,-1.29727)">
        <g id="Play">
            <path id="Stroke-1" serif:id="Stroke 1" d="M2.75,12C2.75,18.937 5.063,21.25 12,21.25C18.937,21.25 21.25,18.937 21.25,12C21.25,5.063 18.937,2.75 12,2.75C5.063,2.75 2.75,5.063 2.75,12Z" style="fill:none;stroke:white;stroke-width:2.17px;"/>
        </g>
        <g transform="matrix(0.0261632,0,0,0.0261632,6.47226,6.47231)">
            <path d="M419.061,11.643C416.838,9.516 413.611,8.504 409.517,8.504C376.59,8.504 287.512,73.896 212.658,150.274C169.962,193.831 148.18,224.34 139.697,246.348C146.152,248.51 152.698,251.547 159.368,255.515C164.587,258.62 169.46,262.285 173.836,266.395C173.842,266.397 173.844,266.399 173.85,266.401C182.378,274.408 188.821,283.845 193.038,293.979C214.811,284.27 244.309,261.879 285.443,219.92C369.608,134.048 439.164,30.877 419.061,11.643Z" style="fill:white;fill-rule:nonzero;"/>
            <path d="M150.175,266.736C138.72,259.918 127.918,255.942 117.367,254.679C114.901,254.384 112.449,254.236 110.006,254.236C101.941,254.236 93.817,255.856 85.857,259.053C55.032,271.442 52.022,300.621 49.366,326.368C46.06,358.413 42.387,378.404 9.936,385.325C3.994,386.593 -0.189,391.933 0.006,398.007C0.201,404.081 4.717,409.143 10.729,410.027C28.889,412.697 46.13,414.05 61.975,414.051L61.986,414.051C96.544,414.051 125.038,407.755 146.675,395.339C166.53,383.946 179.819,367.767 185.105,348.551C188.016,337.969 188.24,327.063 186.11,316.6C182.025,296.534 169.276,278.103 150.175,266.736Z" style="fill:white;fill-rule:nonzero;"/>
        </g>
    </g>
</svg>
