<?xml version="1.0" encoding="UTF-8" standalone="no"?>
<!DOCTYPE svg PUBLIC "-//W3C//DTD SVG 1.1//EN" "http://www.w3.org/Graphics/SVG/1.1/DTD/svg11.dtd">
<svg width="100%" height="100%" viewBox="0 0 24 24" version="1.1" xmlns="http://www.w3.org/2000/svg" xmlns:xlink="http://www.w3.org/1999/xlink" xml:space="preserve" xmlns:serif="http://www.serif.com/" style="fill-rule:evenodd;clip-rule:evenodd;stroke-linecap:round;stroke-linejoin:round;">
    <g id="Camera" transform="matrix(1.13849,0,0,1.13849,-1.99499,-1.23053)">
        <path id="Stroke-2" serif:id="Stroke 2" d="M15.438,12.498C15.438,10.761 14.03,9.353 12.293,9.353C10.556,9.353 9.148,10.761 9.148,12.498C9.148,14.235 10.556,15.644 12.293,15.644C14.03,15.644 15.438,14.235 15.438,12.498Z" style="fill:none;stroke:white;stroke-width:2.11px;"/>
        <path id="Stroke-4" serif:id="Stroke 4" d="M12.293,20.2C20.338,20.2 21.296,17.79 21.296,12.567C21.296,8.905 20.812,6.947 17.762,6.104C17.482,6.016 17.172,5.848 16.92,5.571C16.514,5.125 16.217,3.758 15.236,3.344C14.255,2.932 10.315,2.951 9.349,3.344C8.385,3.739 8.072,5.125 7.665,5.571C7.414,5.848 7.104,6.016 6.823,6.104C3.774,6.947 3.289,8.905 3.289,12.567C3.289,17.79 4.247,20.2 12.293,20.2Z" style="fill:none;stroke:white;stroke-width:2.11px;"/>
        <path id="Stroke-11" serif:id="Stroke 11" d="M17.205,9L17.214,9" style="fill:none;fill-rule:nonzero;stroke:white;stroke-width:2.11px;"/>
    </g>
</svg>
