<?xml version="1.0" encoding="UTF-8" standalone="no"?>
<!DOCTYPE svg PUBLIC "-//W3C//DTD SVG 1.1//EN" "http://www.w3.org/Graphics/SVG/1.1/DTD/svg11.dtd">
<svg width="100%" height="100%" viewBox="0 0 24 24" version="1.1" xmlns="http://www.w3.org/2000/svg" xmlns:xlink="http://www.w3.org/1999/xlink" xml:space="preserve" xmlns:serif="http://www.serif.com/" style="fill-rule:evenodd;clip-rule:evenodd;stroke-linecap:round;stroke-linejoin:round;">
    <g id="Iconly-Curved-Paper-Download" serif:id="Iconly/Curved/Paper Download" transform="matrix(1.17868,0,0,1.10811,-2.19692,-1.2973)">
        <g id="Paper-Download" serif:id="Paper Download">
            <path id="Stroke-1" serif:id="Stroke 1" d="M20.16,8.3L14.49,2.9C13.76,2.8 12.94,2.75 12.04,2.75C5.75,2.75 3.65,5.07 3.65,12C3.65,18.94 5.75,21.25 12.04,21.25C18.34,21.25 20.44,18.94 20.44,12C20.44,10.58 20.35,9.35 20.16,8.3Z" style="fill:none;stroke:white;stroke-width:2.1px;"/>
            <g id="Stroke-3" serif:id="Stroke 3" transform="matrix(1,0,0,1,-0.848408,0.902439)">
                <path d="M13.934,2.833L13.934,5.494C13.934,7.352 15.44,8.857 17.298,8.857L20.249,8.857" style="fill:none;fill-rule:nonzero;stroke:white;stroke-width:2.1px;"/>
            </g>
        </g>
    </g>
</svg>
