<?xml version="1.0" encoding="UTF-8" standalone="no"?>
<!DOCTYPE svg PUBLIC "-//W3C//DTD SVG 1.1//EN" "http://www.w3.org/Graphics/SVG/1.1/DTD/svg11.dtd">
<svg width="100%" height="100%" viewBox="0 0 24 24" version="1.1" xmlns="http://www.w3.org/2000/svg" xmlns:xlink="http://www.w3.org/1999/xlink" xml:space="preserve" xmlns:serif="http://www.serif.com/" style="fill-rule:evenodd;clip-rule:evenodd;stroke-linecap:round;stroke-linejoin:round;">
    <g id="Iconly-Curved-Play" serif:id="Iconly/Curved/Play" transform="matrix(1.10811,0,0,1.10811,-1.29727,-1.29727)">
        <g id="Play">
            <path id="Stroke-1" serif:id="Stroke 1" d="M2.75,12C2.75,18.937 5.063,21.25 12,21.25C18.937,21.25 21.25,18.937 21.25,12C21.25,5.063 18.937,2.75 12,2.75C5.063,2.75 2.75,5.063 2.75,12Z" style="fill:none;stroke:white;stroke-width:2.17px;"/>
            <g transform="matrix(0.676831,0,0,0.676831,5.23169,5.23296)">
                <path d="M7.859,14.691L7.049,15.496C6.348,16.186 5.205,16.186 4.504,15.496C4.17,15.165 3.982,14.714 3.982,14.244C3.982,13.774 4.17,13.323 4.504,12.992L7.484,10.037C8.101,9.424 9.263,8.522 10.11,9.362C10.297,9.562 10.56,9.675 10.834,9.675C11.378,9.675 11.826,9.228 11.826,8.683C11.826,8.407 11.71,8.143 11.507,7.955C10.069,6.527 7.941,6.791 6.088,8.63L3.108,11.586C2.397,12.287 1.997,13.246 2,14.244C1.998,15.242 2.397,16.201 3.108,16.902C3.844,17.632 4.81,17.998 5.777,17.998C6.744,17.998 7.711,17.633 8.446,16.902L9.257,16.097C9.445,15.911 9.55,15.658 9.55,15.395C9.55,15.133 9.447,14.882 9.262,14.697C8.878,14.312 8.246,14.309 7.859,14.691ZM16.891,3.207C15.344,1.673 13.182,1.59 11.752,3.01L10.743,4.012C10.556,4.198 10.45,4.451 10.45,4.715C10.45,5.258 10.898,5.706 11.441,5.706C11.702,5.706 11.953,5.602 12.139,5.418L13.149,4.417C13.889,3.681 14.86,3.986 15.495,4.614C15.831,4.949 16.017,5.393 16.017,5.866C16.017,6.339 15.831,6.783 15.495,7.117L12.315,10.271C10.861,11.712 10.179,11.037 9.888,10.748C9.702,10.564 9.451,10.46 9.19,10.46C8.647,10.46 8.199,10.908 8.199,11.451C8.199,11.715 8.305,11.968 8.492,12.154C9.16,12.816 9.922,13.144 10.72,13.144C11.697,13.144 12.73,12.652 13.713,11.677L16.893,8.524C17.602,7.822 18.001,6.864 18,5.866C18.002,4.867 17.602,3.909 16.891,3.207Z" style="fill:white;fill-rule:nonzero;stroke:white;stroke-width:1.07px;stroke-linecap:butt;stroke-miterlimit:2;"/>
            </g>
        </g>
    </g>
</svg>
