<?xml version="1.0" encoding="UTF-8" standalone="no"?>
<!DOCTYPE svg PUBLIC "-//W3C//DTD SVG 1.1//EN" "http://www.w3.org/Graphics/SVG/1.1/DTD/svg11.dtd">
<svg width="100%" height="100%" viewBox="0 0 24 24" version="1.1" xmlns="http://www.w3.org/2000/svg" xmlns:xlink="http://www.w3.org/1999/xlink" xml:space="preserve" xmlns:serif="http://www.serif.com/" style="fill-rule:evenodd;clip-rule:evenodd;stroke-linecap:round;stroke-linejoin:round;">
    <g id="Iconly-Curved-Image" serif:id="Iconly/Curved/Image" transform="matrix(1.10811,0,0,1.10811,-1.29727,-1.29727)">
        <g id="Image">
            <path id="Stroke-1" serif:id="Stroke 1" d="M6.071,16.459C6.071,16.459 6.883,14.822 8.065,14.822C9.247,14.822 9.851,16.197 11.161,16.197C12.47,16.197 13.939,12.749 15.423,12.749C16.905,12.749 17.971,15.14 17.971,15.14" style="fill:none;fill-rule:nonzero;stroke:white;stroke-width:2.17px;"/>
            <path id="Stroke-3" serif:id="Stroke 3" d="M10.139,9.105C10.139,9.965 9.442,10.663 8.581,10.663C7.721,10.663 7.024,9.965 7.024,9.105C7.024,8.245 7.721,7.547 8.581,7.547C9.442,7.548 10.139,8.245 10.139,9.105Z" style="fill:none;stroke:white;stroke-width:2.17px;"/>
            <path id="Stroke-5" serif:id="Stroke 5" d="M2.75,12C2.75,18.937 5.063,21.25 12,21.25C18.937,21.25 21.25,18.937 21.25,12C21.25,5.063 18.937,2.75 12,2.75C5.063,2.75 2.75,5.063 2.75,12Z" style="fill:none;stroke:white;stroke-width:2.17px;"/>
        </g>
    </g>
</svg>
