<?xml version="1.0" encoding="UTF-8" standalone="no"?>
<!DOCTYPE svg PUBLIC "-//W3C//DTD SVG 1.1//EN" "http://www.w3.org/Graphics/SVG/1.1/DTD/svg11.dtd">
<svg width="100%" height="100%" viewBox="0 0 24 24" version="1.1" xmlns="http://www.w3.org/2000/svg" xmlns:xlink="http://www.w3.org/1999/xlink" xml:space="preserve" xmlns:serif="http://www.serif.com/" style="fill-rule:evenodd;clip-rule:evenodd;stroke-linecap:round;stroke-linejoin:round;">
    <g id="Iconly-Curved-Play" serif:id="Iconly/Curved/Play" transform="matrix(1.10811,0,0,1.10811,-1.29727,-1.29727)">
        <g id="Play">
            <path id="Stroke-1" serif:id="Stroke 1" d="M2.75,12C2.75,18.937 5.063,21.25 12,21.25C18.937,21.25 21.25,18.937 21.25,12C21.25,5.063 18.937,2.75 12,2.75C5.063,2.75 2.75,5.063 2.75,12Z" style="fill:none;stroke:white;stroke-width:2.17px;"/>
        </g>
        <g id="Stroke-11" serif:id="Stroke 1" transform="matrix(1.14248,0,0,1.14248,-1.69377,-1.6375)">
            <path d="M15.596,15.696L8.376,15.696" style="fill:none;fill-rule:nonzero;stroke:white;stroke-width:1.9px;"/>
        </g>
        <g id="Stroke-2" serif:id="Stroke 2" transform="matrix(1.14248,0,0,1.14248,-1.69377,-1.6375)">
            <path d="M15.596,11.937L8.376,11.937" style="fill:none;fill-rule:nonzero;stroke:white;stroke-width:1.9px;"/>
        </g>
        <g id="Stroke-21" serif:id="Stroke 2" transform="matrix(1.14248,0,0,1.14248,-1.69377,-1.6375)">
            <path d="M15.596,8.177L8.376,8.177" style="fill:none;fill-rule:nonzero;stroke:white;stroke-width:1.9px;"/>
        </g>
    </g>
</svg>
