<?xml version="1.0" encoding="UTF-8" standalone="no"?>
<!DOCTYPE svg PUBLIC "-//W3C//DTD SVG 1.1//EN" "http://www.w3.org/Graphics/SVG/1.1/DTD/svg11.dtd">
<svg width="100%" height="100%" viewBox="0 0 24 24" version="1.1" xmlns="http://www.w3.org/2000/svg" xmlns:xlink="http://www.w3.org/1999/xlink" xml:space="preserve" xmlns:serif="http://www.serif.com/" style="fill-rule:evenodd;clip-rule:evenodd;stroke-linecap:round;stroke-linejoin:round;">
    <g id="Iconly-Curved-Play" serif:id="Iconly/Curved/Play" transform="matrix(1.10811,0,0,1.10811,-1.29727,-1.29727)">
        <g id="Play">
            <path id="Stroke-1" serif:id="Stroke 1" d="M2.75,12C2.75,18.937 5.063,21.25 12,21.25C18.937,21.25 21.25,18.937 21.25,12C21.25,5.063 18.937,2.75 12,2.75C5.063,2.75 2.75,5.063 2.75,12Z" style="fill:none;stroke:white;stroke-width:2.17px;"/>
        </g>
        <g id="Graph" transform="matrix(0.473541,0,0,0.473541,5.53524,7.13065)">
            <g id="Stroke-11" serif:id="Stroke 1" transform="matrix(1,0,0,1,3.23848,-3.23848)">
                <path d="M13.679,3.349C12.971,4.164 12.689,9.289 13.512,10.113C14.335,10.935 19.28,10.519 20.468,9.584C23.326,7.333 15.939,0.747 13.679,3.349Z" style="fill:none;stroke:white;stroke-width:4.57px;"/>
            </g>
            <path id="Stroke-3" serif:id="Stroke 3" d="M18.138,13.79C19.222,14.874 16.348,21.054 10.652,21.054C6.398,21.054 2.95,17.606 2.95,13.353C2.95,8.053 8.179,4.663 9.678,6.162C10.541,7.025 9.569,11.086 11.117,12.635C12.665,14.184 17.054,12.706 18.138,13.79Z" style="fill:none;stroke:white;stroke-width:4.57px;"/>
        </g>
    </g>
</svg>
