<?xml version="1.0" encoding="UTF-8" standalone="no"?>
<!DOCTYPE svg PUBLIC "-//W3C//DTD SVG 1.1//EN" "http://www.w3.org/Graphics/SVG/1.1/DTD/svg11.dtd">
<svg width="100%" height="100%" viewBox="0 0 24 24" version="1.1" xmlns="http://www.w3.org/2000/svg" xmlns:xlink="http://www.w3.org/1999/xlink" xml:space="preserve" xmlns:serif="http://www.serif.com/" style="fill-rule:evenodd;clip-rule:evenodd;stroke-linecap:round;stroke-linejoin:round;">
    <g id="Iconly-Curved-Play" serif:id="Iconly/Curved/Play" transform="matrix(1.10811,0,0,1.10811,-1.29727,-1.29727)">
        <g id="Play">
            <path id="Stroke-1" serif:id="Stroke 1" d="M2.75,12C2.75,18.937 5.063,21.25 12,21.25C18.937,21.25 21.25,18.937 21.25,12C21.25,5.063 18.937,2.75 12,2.75C5.063,2.75 2.75,5.063 2.75,12Z" style="fill:none;stroke:white;stroke-width:2.17px;"/>
        </g>
        <g id="Volume-Off" serif:id="Volume Off" transform="matrix(0.705741,0,0,0.705741,3.0195,3.36909)">
            <g transform="matrix(0.987151,0,0,0.987151,1.96589,0.42986)">
                <path d="M2.682,11.953C2.68,13.199 2.682,14.661 3.711,15.535C4.741,16.409 5.558,16.048 6.89,16.487C8.222,16.926 10.089,19.633 12.151,18.41C13.265,17.618 13.791,16.124 13.791,11.953C13.791,7.782 13.289,6.304 12.151,5.496C10.089,4.274 8.222,6.981 6.89,7.419C5.558,7.858 4.741,7.497 3.711,8.371C2.682,9.245 2.68,10.707 2.682,11.953Z" style="fill:none;stroke:white;stroke-width:3.11px;"/>
            </g>
            <g transform="matrix(0.872109,0,0,0.872109,2.25301,1.80518)">
                <path d="M19.436,5.774C21.929,9.494 21.937,14.403 19.436,18.132" style="fill:none;fill-rule:nonzero;stroke:white;stroke-width:3.52px;"/>
            </g>
        </g>
    </g>
</svg>
