<?xml version="1.0" encoding="UTF-8" standalone="no"?>
<!DOCTYPE svg PUBLIC "-//W3C//DTD SVG 1.1//EN" "http://www.w3.org/Graphics/SVG/1.1/DTD/svg11.dtd">
<svg width="100%" height="100%" viewBox="0 0 24 24" version="1.1" xmlns="http://www.w3.org/2000/svg" xmlns:xlink="http://www.w3.org/1999/xlink" xml:space="preserve" xmlns:serif="http://www.serif.com/" style="fill-rule:evenodd;clip-rule:evenodd;stroke-linecap:round;stroke-linejoin:round;">
    <g id="Iconly-Curved-Play" serif:id="Iconly/Curved/Play" transform="matrix(1.10811,0,0,1.10811,-1.29727,-1.29727)">
        <g transform="matrix(0.508084,0,0,0.508084,6.1865,6.18656)">
            <path d="M13.045,1.997L11.076,9.869C8.68,8.867 5.479,8.429 2.642,9.307C3.216,6.785 4.612,1.997 4.612,1.997C6.698,0.289 10.756,0.902 13.045,1.997Z" style="fill:white;fill-rule:nonzero;"/>
            <path d="M14.184,3.145C16.331,4.402 20.127,4.79 22.884,3.967L20.633,11.556C18.32,12.78 13.898,12.689 12.2,10.993L14.184,3.145Z" style="fill:white;fill-rule:nonzero;"/>
            <path d="M10.398,11.513L8.431,19.383C5.953,18.243 2.794,17.481 0,18.82C0,18.82 1.297,13.751 1.966,11.232C4.131,9.889 8.444,10.286 10.398,11.513Z" style="fill:white;fill-rule:nonzero;"/>
            <path d="M11.746,12.641C13.893,14.159 17.542,14.405 20.239,13.361L17.992,20.953C15.816,22.432 11.559,22.205 9.557,20.672L11.746,12.641Z" style="fill:white;fill-rule:nonzero;"/>
        </g>
        <g id="Play">
            <path id="Stroke-1" serif:id="Stroke 1" d="M2.75,12C2.75,18.937 5.063,21.25 12,21.25C18.937,21.25 21.25,18.937 21.25,12C21.25,5.063 18.937,2.75 12,2.75C5.063,2.75 2.75,5.063 2.75,12Z" style="fill:none;stroke:white;stroke-width:2.17px;"/>
        </g>
    </g>
</svg>
