<?xml version="1.0" encoding="UTF-8" standalone="no"?>
<!DOCTYPE svg PUBLIC "-//W3C//DTD SVG 1.1//EN" "http://www.w3.org/Graphics/SVG/1.1/DTD/svg11.dtd">
<svg width="100%" height="100%" viewBox="0 0 24 24" version="1.1" xmlns="http://www.w3.org/2000/svg" xmlns:xlink="http://www.w3.org/1999/xlink" xml:space="preserve" xmlns:serif="http://www.serif.com/" style="fill-rule:evenodd;clip-rule:evenodd;stroke-linecap:round;stroke-linejoin:round;">
    <g id="Iconly-Curved-Play" serif:id="Iconly/Curved/Play" transform="matrix(1.10811,0,0,1.10811,-1.29727,-1.29727)">
        <g id="Play">
            <path id="Stroke-1" serif:id="Stroke 1" d="M2.75,12C2.75,18.937 5.063,21.25 12,21.25C18.937,21.25 21.25,18.937 21.25,12C21.25,5.063 18.937,2.75 12,2.75C5.063,2.75 2.75,5.063 2.75,12Z" style="fill:none;stroke:rgb(59,59,68);stroke-width:2.17px;"/>
            <g transform="matrix(0.0472482,0,0,0.0472482,0.428914,0.428914)">
                <path d="M319.5,177.9L210.8,285.9L170.3,245.2C165.5,240.4 157.8,240.4 153,245.2C148.2,250 148.2,257.7 153,262.5L202.1,311.9C204.4,314.2 207.5,315.5 210.8,315.5C214,315.5 217.1,314.2 219.4,311.9L336.8,195.2C341.6,190.4 341.6,182.7 336.8,177.9C332,173.1 324.3,173.1 319.5,177.9Z" style="fill-rule:nonzero;stroke:rgb(59,59,68);stroke-width:45.84px;stroke-linecap:butt;stroke-miterlimit:2;"/>
            </g>
        </g>
    </g>
</svg>
