<?xml version="1.0" encoding="UTF-8" standalone="no"?>
<!DOCTYPE svg PUBLIC "-//W3C//DTD SVG 1.1//EN" "http://www.w3.org/Graphics/SVG/1.1/DTD/svg11.dtd">
<svg width="100%" height="100%" viewBox="0 0 24 24" version="1.1" xmlns="http://www.w3.org/2000/svg" xmlns:xlink="http://www.w3.org/1999/xlink" xml:space="preserve" xmlns:serif="http://www.serif.com/" style="fill-rule:evenodd;clip-rule:evenodd;stroke-linecap:round;stroke-linejoin:round;">
    <g id="Iconly-Curved-Hide" serif:id="Iconly/Curved/Hide" transform="matrix(1.13453,0,0,1.13453,-1.61997,-1.76984)">
        <g id="Hide">
            <path id="Stroke-1" serif:id="Stroke 1" d="M6.42,17.73C4.19,16.27 2.75,14.07 2.75,12.14C2.75,8.86 6.89,4.84 12,4.84C14.09,4.84 16.03,5.51 17.59,6.55" style="fill:none;fill-rule:nonzero;stroke:rgb(173,173,184);stroke-width:2.12px;"/>
            <path id="Stroke-3" serif:id="Stroke 3" d="M19.85,8.61C20.741,9.74 21.26,10.99 21.26,12.14C21.26,15.42 17.11,19.44 12,19.44C11.09,19.44 10.201,19.31 9.37,19.08" style="fill:none;fill-rule:nonzero;stroke:rgb(173,173,184);stroke-width:2.12px;"/>
            <path id="Stroke-5" serif:id="Stroke 5" d="M9.766,14.367C9.171,13.778 8.838,12.975 8.841,12.138C8.837,10.393 10.249,8.975 11.995,8.972C12.835,8.97 13.641,9.303 14.235,9.897" style="fill:none;fill-rule:nonzero;stroke:rgb(173,173,184);stroke-width:2.12px;"/>
            <path id="Stroke-7" serif:id="Stroke 7" d="M15.11,12.699C14.876,13.991 13.865,15.004 12.573,15.241" style="fill:none;fill-rule:nonzero;stroke:rgb(173,173,184);stroke-width:2.12px;"/>
            <path id="Stroke-9" serif:id="Stroke 9" d="M19.892,4.25L4.118,20.024" style="fill:none;fill-rule:nonzero;stroke:rgb(173,173,184);stroke-width:2.12px;"/>
        </g>
    </g>
</svg>
