<?xml version="1.0" encoding="UTF-8" standalone="no"?>
<!DOCTYPE svg PUBLIC "-//W3C//DTD SVG 1.1//EN" "http://www.w3.org/Graphics/SVG/1.1/DTD/svg11.dtd">
<svg width="100%" height="100%" viewBox="0 0 24 24" version="1.1" xmlns="http://www.w3.org/2000/svg" xmlns:xlink="http://www.w3.org/1999/xlink" xml:space="preserve" xmlns:serif="http://www.serif.com/" style="fill-rule:evenodd;clip-rule:evenodd;stroke-linecap:round;stroke-linejoin:round;">
    <g id="Iconly-Curved-Volume-Off" serif:id="Iconly/Curved/Volume Off" transform="matrix(1.32022,0,0,1.32022,-4.47357,-4.29608)">
        <g id="Volume-Off" serif:id="Volume Off">
            <path id="Stroke-1" serif:id="Stroke 1" d="M8.404,16.553C7.321,16.303 6.587,16.5 5.684,15.739C4.672,14.88 4.664,13.44 4.672,12.214C4.664,10.988 4.672,9.548 5.684,8.689C6.695,7.83 7.5,8.179 8.815,7.749C10.121,7.32 11.956,4.653 13.987,5.852C14.81,6.434 15.293,7.382 15.49,9.467" style="fill:none;fill-rule:nonzero;stroke:rgb(173,173,184);stroke-width:1.82px;"/>
            <path id="Stroke-3" serif:id="Stroke 3" d="M15.579,13.672C15.463,16.678 14.944,17.886 13.987,18.566C12.949,19.184 11.956,18.781 11.07,18.182" style="fill:none;fill-rule:nonzero;stroke:rgb(173,173,184);stroke-width:1.82px;"/>
            <path id="Stroke-5" serif:id="Stroke 5" d="M20.285,4.671L4.941,20.016" style="fill:none;fill-rule:nonzero;stroke:rgb(173,173,184);stroke-width:1.82px;"/>
        </g>
        <g id="Iconly-Curved-Volume-Off1" serif:id="Iconly/Curved/Volume Off">
        </g>
    </g>
</svg>
