<?xml version="1.0" encoding="UTF-8" standalone="no"?>
<!DOCTYPE svg PUBLIC "-//W3C//DTD SVG 1.1//EN" "http://www.w3.org/Graphics/SVG/1.1/DTD/svg11.dtd">
<svg width="100%" height="100%" viewBox="0 0 24 24" version="1.1" xmlns="http://www.w3.org/2000/svg" xmlns:xlink="http://www.w3.org/1999/xlink" xml:space="preserve" xmlns:serif="http://www.serif.com/" style="fill-rule:evenodd;clip-rule:evenodd;stroke-linecap:round;stroke-linejoin:round;">
    <g id="Iconly-Curved-Show" serif:id="Iconly/Curved/Show" transform="matrix(1.13489,0,0,1.13489,-1.62123,-1.67772)">
        <g id="Show">
            <path id="Stroke-1" serif:id="Stroke 1" d="M15.164,12.052C15.164,13.798 13.748,15.214 12.002,15.214C10.256,15.214 8.84,13.798 8.84,12.052C8.84,10.305 10.256,8.89 12.002,8.89C13.748,8.89 15.164,10.305 15.164,12.052Z" style="fill:none;stroke:white;stroke-width:2.15px;"/>
            <path id="Stroke-3" serif:id="Stroke 3" d="M2.75,12.052C2.75,15.332 6.892,19.354 12.002,19.354C17.111,19.354 21.254,15.335 21.254,12.052C21.254,8.769 17.111,4.75 12.002,4.75C6.892,4.75 2.75,8.772 2.75,12.052Z" style="fill:none;stroke:white;stroke-width:2.15px;"/>
        </g>
    </g>
</svg>
