<?xml version="1.0" encoding="UTF-8" standalone="no"?>
<!DOCTYPE svg PUBLIC "-//W3C//DTD SVG 1.1//EN" "http://www.w3.org/Graphics/SVG/1.1/DTD/svg11.dtd">
<svg width="100%" height="100%" viewBox="0 0 24 24" version="1.1" xmlns="http://www.w3.org/2000/svg" xmlns:xlink="http://www.w3.org/1999/xlink" xml:space="preserve" xmlns:serif="http://www.serif.com/" style="fill-rule:evenodd;clip-rule:evenodd;stroke-linecap:round;stroke-linejoin:round;">
    <g id="Volume-Down" serif:id="Volume Down" transform="matrix(1.35781,0,0,1.35781,-4.472,-4.68358)">
        <path id="Stroke-1" serif:id="Stroke 1" d="M18.656,8.635C19.909,10.906 19.909,13.677 18.656,15.94" style="fill:none;fill-rule:nonzero;stroke:white;stroke-width:1.79px;"/>
        <path id="Stroke-3" serif:id="Stroke 3" d="M4.667,12.287C4.664,13.506 4.667,14.935 5.673,15.79C6.68,16.645 7.479,16.292 8.781,16.72C10.084,17.15 11.909,19.797 13.925,18.601C15.015,17.827 15.528,16.366 15.528,12.287C15.528,8.209 15.038,6.764 13.925,5.974C11.909,4.779 10.084,7.426 8.781,7.854C7.479,8.284 6.68,7.931 5.673,8.785C4.667,9.639 4.664,11.069 4.667,12.287Z" style="fill:none;stroke:white;stroke-width:1.79px;"/>
    </g>
</svg>
