<?xml version="1.0" encoding="UTF-8" standalone="no"?>
<!DOCTYPE svg PUBLIC "-//W3C//DTD SVG 1.1//EN" "http://www.w3.org/Graphics/SVG/1.1/DTD/svg11.dtd">
<svg width="100%" height="100%" viewBox="0 0 24 24" version="1.1" xmlns="http://www.w3.org/2000/svg" xmlns:xlink="http://www.w3.org/1999/xlink" xml:space="preserve" xmlns:serif="http://www.serif.com/" style="fill-rule:evenodd;clip-rule:evenodd;stroke-linecap:round;stroke-linejoin:round;">
    <g transform="matrix(1.31735,0,0,1.31735,-4.37728,-4.29302)">
        <g id="Iconly-Curved-Volume-Off" serif:id="Iconly/Curved/Volume Off">
            <g id="Iconly-Curved-Volume-Off1" serif:id="Iconly/Curved/Volume Off">
                <g id="Volume-Off" serif:id="Volume Off">
                    <g transform="matrix(0.987151,0,0,0.987151,1.96589,0.42986)">
                        <path d="M2.682,11.953C2.68,13.199 2.682,14.661 3.711,15.535C4.741,16.409 5.558,16.048 6.89,16.487C8.222,16.926 10.089,19.633 12.151,18.41C13.265,17.618 13.791,16.124 13.791,11.953C13.791,7.782 13.289,6.304 12.151,5.496C10.089,4.274 8.222,6.981 6.89,7.419C5.558,7.858 4.741,7.497 3.711,8.371C2.682,9.245 2.68,10.707 2.682,11.953Z" style="fill:none;stroke:white;stroke-width:1.85px;"/>
                    </g>
                    <g transform="matrix(0.872109,0,0,0.872109,0.974305,1.91889)">
                        <path d="M19.436,5.774C21.929,9.494 21.937,14.403 19.436,18.132" style="fill:none;fill-rule:nonzero;stroke:white;stroke-width:2.09px;"/>
                    </g>
                </g>
            </g>
        </g>
    </g>
</svg>
