<?xml version="1.0" encoding="UTF-8" standalone="no"?>
<!DOCTYPE svg PUBLIC "-//W3C//DTD SVG 1.1//EN" "http://www.w3.org/Graphics/SVG/1.1/DTD/svg11.dtd">
<svg width="100%" height="100%" viewBox="0 0 24 24" version="1.1" xmlns="http://www.w3.org/2000/svg" xmlns:xlink="http://www.w3.org/1999/xlink" xml:space="preserve" xmlns:serif="http://www.serif.com/" style="fill-rule:evenodd;clip-rule:evenodd;stroke-linecap:round;stroke-linejoin:round;">
    <g id="Iconly-Curved-Game" serif:id="Iconly/Curved/Game" transform="matrix(1.10473,0,0,1.10473,-1.54854,-1.2321)">
        <g id="Game">
            <path id="Stroke-1" serif:id="Stroke 1" d="M9.255,12.063L9.255,15.638" style="fill:none;fill-rule:nonzero;stroke:white;stroke-width:2.17px;"/>
            <path id="Stroke-2" serif:id="Stroke 2" d="M11.079,13.85L7.431,13.85" style="fill:none;fill-rule:nonzero;stroke:white;stroke-width:2.17px;"/>
            <path id="Stroke-3" serif:id="Stroke 3" d="M15.477,12.171L15.375,12.171" style="fill:none;fill-rule:nonzero;stroke:white;stroke-width:2.17px;"/>
            <path id="Stroke-4" serif:id="Stroke 4" d="M17.208,15.583L17.106,15.583" style="fill:none;fill-rule:nonzero;stroke:white;stroke-width:2.17px;"/>
            <path id="Stroke-5" serif:id="Stroke 5" d="M8.514,2.216C8.521,2.93 9.106,3.503 9.82,3.496L10.828,3.496C11.931,3.488 12.833,4.372 12.848,5.474L12.848,6.481" style="fill:none;fill-rule:nonzero;stroke:white;stroke-width:2.17px;"/>
            <path id="Stroke-7" serif:id="Stroke 7" d="M21.812,13.895C21.812,8.335 19.426,6.481 12.265,6.481C5.103,6.481 2.716,8.335 2.716,13.895C2.716,19.456 5.103,21.309 12.265,21.309C19.426,21.309 21.812,19.456 21.812,13.895Z" style="fill:none;stroke:white;stroke-width:2.17px;"/>
        </g>
    </g>
</svg>
