<?xml version="1.0" encoding="UTF-8" standalone="no"?>
<!DOCTYPE svg PUBLIC "-//W3C//DTD SVG 1.1//EN" "http://www.w3.org/Graphics/SVG/1.1/DTD/svg11.dtd">
<svg width="100%" height="100%" viewBox="0 0 24 24" version="1.1" xmlns="http://www.w3.org/2000/svg" xmlns:xlink="http://www.w3.org/1999/xlink" xml:space="preserve" xmlns:serif="http://www.serif.com/" style="fill-rule:evenodd;clip-rule:evenodd;stroke-linecap:round;stroke-linejoin:round;">
    <g id="Iconly-Curved-Play" serif:id="Iconly/Curved/Play" transform="matrix(1.10811,0,0,1.10811,-1.29727,-1.29727)">
        <g id="Play">
            <path id="Stroke-1" serif:id="Stroke 1" d="M2.75,12C2.75,18.937 5.063,21.25 12,21.25C18.937,21.25 21.25,18.937 21.25,12C21.25,5.063 18.937,2.75 12,2.75C5.063,2.75 2.75,5.063 2.75,12Z" style="fill:none;stroke:white;stroke-width:2.17px;"/>
        </g>
        <g transform="matrix(0.562514,0,0,0.562514,3.16287,0.850359)">
            <g transform="matrix(0.902437,0,0,0.902437,-2.03788,1.17071)">
                <path d="M10,16C10.256,16 10.512,15.902 10.707,15.707L14.707,11.707C15.098,11.316 15.098,10.684 14.707,10.293C14.316,9.902 13.684,9.902 13.293,10.293L9.293,14.293C8.902,14.684 8.902,15.316 9.293,15.707C9.488,15.902 9.744,16 10,16Z" style="fill:white;fill-rule:nonzero;stroke:white;stroke-width:2.67px;stroke-linecap:butt;stroke-miterlimit:2;"/>
            </g>
            <g transform="matrix(0.902437,0,0,0.902437,-2.03788,4.37929)">
                <path d="M10,21C10.256,21 10.512,20.902 10.707,20.707L12.707,18.707C13.098,18.316 13.098,17.684 12.707,17.293C12.316,16.902 11.684,16.902 11.293,17.293L9.293,19.293C8.902,19.684 8.902,20.316 9.293,20.707C9.488,20.902 9.744,21 10,21Z" style="fill:white;fill-rule:nonzero;stroke:white;stroke-width:2.67px;stroke-linecap:butt;stroke-miterlimit:2;"/>
            </g>
            <g transform="matrix(0.902437,0,0,0.902437,-0.433589,2.775)">
                <path d="M13.29,15.29C13.11,15.48 13,15.74 13,16C13,16.26 13.11,16.52 13.29,16.71C13.48,16.89 13.74,17 14,17C14.27,17 14.52,16.89 14.71,16.71C14.89,16.52 15,16.26 15,16C15,15.74 14.89,15.48 14.71,15.29C14.34,14.92 13.67,14.92 13.29,15.29Z" style="fill:white;fill-rule:nonzero;stroke:white;stroke-width:2.67px;stroke-linecap:butt;stroke-miterlimit:2;"/>
            </g>
            <g transform="matrix(0.902437,0,0,0.902437,1.17071,1.17071)">
                <path d="M15.293,14.707C15.488,14.902 15.744,15 16,15C16.256,15 16.512,14.902 16.707,14.707L19.707,11.707C20.098,11.316 20.098,10.684 19.707,10.293C19.316,9.902 18.684,9.902 18.293,10.293L15.293,13.293C14.902,13.684 14.902,14.316 15.293,14.707Z" style="fill:white;fill-rule:nonzero;stroke:white;stroke-width:2.67px;stroke-linecap:butt;stroke-miterlimit:2;"/>
            </g>
            <g transform="matrix(0.902437,0,0,0.902437,-0.433589,5.98359)">
                <path d="M10,26C10.256,26 10.512,25.902 10.707,25.707L19.707,16.707C20.098,16.316 20.098,15.684 19.707,15.293C19.316,14.902 18.684,14.902 18.293,15.293L9.293,24.293C8.902,24.684 8.902,25.316 9.293,25.707C9.488,25.902 9.744,26 10,26Z" style="fill:white;fill-rule:nonzero;stroke:white;stroke-width:2.67px;stroke-linecap:butt;stroke-miterlimit:2;"/>
            </g>
            <g transform="matrix(0.902437,0,0,0.902437,1.17071,4.37929)">
                <path d="M20.29,14.71C20.48,14.89 20.74,15 21,15C21.26,15 21.52,14.89 21.71,14.71C21.89,14.52 22,14.27 22,14C22,13.74 21.89,13.48 21.71,13.29C21.34,12.92 20.67,12.92 20.29,13.29C20.11,13.48 20,13.74 20,14C20,14.27 20.11,14.52 20.29,14.71Z" style="fill:white;fill-rule:nonzero;stroke:white;stroke-width:2.67px;stroke-linecap:butt;stroke-miterlimit:2;"/>
            </g>
            <g transform="matrix(0.902437,0,0,0.902437,2.775,2.775)">
                <path d="M23,13C23.256,13 23.512,12.902 23.707,12.707L24.707,11.707C25.098,11.316 25.098,10.684 24.707,10.293C24.316,9.902 23.684,9.902 23.293,10.293L22.293,11.293C21.902,11.684 21.902,12.316 22.293,12.707C22.488,12.902 22.744,13 23,13Z" style="fill:white;fill-rule:nonzero;stroke:white;stroke-width:2.67px;stroke-linecap:butt;stroke-miterlimit:2;"/>
            </g>
        </g>
    </g>
</svg>
